<mxfile host="app.diagrams.net" modified="2021-03-25T17:31:15.382Z" agent="5.0 (Windows NT 10.0; Win64; x64) AppleWebKit/537.36 (KHTML, like Gecko) Chrome/89.0.4389.90 Safari/537.36" etag="TeWnZL24UxXarjZ6_rdC" version="14.5.1" type="github">
  <diagram id="qlP3BaOP9GAPPS-wr-BX" name="Page-1">
    <mxGraphModel dx="1038" dy="548" grid="1" gridSize="10" guides="1" tooltips="1" connect="1" arrows="1" fold="1" page="1" pageScale="1" pageWidth="850" pageHeight="1100" math="0" shadow="0">
      <root>
        <mxCell id="0" />
        <mxCell id="1" parent="0" />
        <mxCell id="umiMMHW3gKxDLxaDW7x6-1" value="Login" style="swimlane;fontStyle=1;align=center;verticalAlign=top;childLayout=stackLayout;horizontal=1;startSize=26;horizontalStack=0;resizeParent=1;resizeParentMax=0;resizeLast=0;collapsible=1;marginBottom=0;" vertex="1" parent="1">
          <mxGeometry x="70" y="80" width="160" height="130" as="geometry" />
        </mxCell>
        <mxCell id="umiMMHW3gKxDLxaDW7x6-2" value="Username: string&#xa;Password: string&#xa;LoginStatus: string&#xa;" style="text;strokeColor=none;fillColor=none;align=left;verticalAlign=top;spacingLeft=4;spacingRight=4;overflow=hidden;rotatable=0;points=[[0,0.5],[1,0.5]];portConstraint=eastwest;" vertex="1" parent="umiMMHW3gKxDLxaDW7x6-1">
          <mxGeometry y="26" width="160" height="54" as="geometry" />
        </mxCell>
        <mxCell id="umiMMHW3gKxDLxaDW7x6-3" value="" style="line;strokeWidth=1;fillColor=none;align=left;verticalAlign=middle;spacingTop=-1;spacingLeft=3;spacingRight=3;rotatable=0;labelPosition=right;points=[];portConstraint=eastwest;" vertex="1" parent="umiMMHW3gKxDLxaDW7x6-1">
          <mxGeometry y="80" width="160" height="8" as="geometry" />
        </mxCell>
        <mxCell id="umiMMHW3gKxDLxaDW7x6-4" value="VerifyLogin()&#xa;RefreshLogin()" style="text;strokeColor=none;fillColor=none;align=left;verticalAlign=top;spacingLeft=4;spacingRight=4;overflow=hidden;rotatable=0;points=[[0,0.5],[1,0.5]];portConstraint=eastwest;" vertex="1" parent="umiMMHW3gKxDLxaDW7x6-1">
          <mxGeometry y="88" width="160" height="42" as="geometry" />
        </mxCell>
        <mxCell id="umiMMHW3gKxDLxaDW7x6-26" style="edgeStyle=orthogonalEdgeStyle;rounded=0;orthogonalLoop=1;jettySize=auto;html=1;" edge="1" parent="1" source="umiMMHW3gKxDLxaDW7x6-5">
          <mxGeometry relative="1" as="geometry">
            <mxPoint x="190" y="350" as="targetPoint" />
            <Array as="points">
              <mxPoint x="190" y="240" />
            </Array>
          </mxGeometry>
        </mxCell>
        <mxCell id="umiMMHW3gKxDLxaDW7x6-5" value="User" style="swimlane;fontStyle=1;align=center;verticalAlign=top;childLayout=stackLayout;horizontal=1;startSize=26;horizontalStack=0;resizeParent=1;resizeParentMax=0;resizeLast=0;collapsible=1;marginBottom=0;" vertex="1" parent="1">
          <mxGeometry x="320" y="80" width="160" height="160" as="geometry" />
        </mxCell>
        <mxCell id="umiMMHW3gKxDLxaDW7x6-6" value="UserID: int&#xa;UserName: string&#xa;Email:String" style="text;strokeColor=none;fillColor=none;align=left;verticalAlign=top;spacingLeft=4;spacingRight=4;overflow=hidden;rotatable=0;points=[[0,0.5],[1,0.5]];portConstraint=eastwest;" vertex="1" parent="umiMMHW3gKxDLxaDW7x6-5">
          <mxGeometry y="26" width="160" height="54" as="geometry" />
        </mxCell>
        <mxCell id="umiMMHW3gKxDLxaDW7x6-7" value="" style="line;strokeWidth=1;fillColor=none;align=left;verticalAlign=middle;spacingTop=-1;spacingLeft=3;spacingRight=3;rotatable=0;labelPosition=right;points=[];portConstraint=eastwest;" vertex="1" parent="umiMMHW3gKxDLxaDW7x6-5">
          <mxGeometry y="80" width="160" height="8" as="geometry" />
        </mxCell>
        <mxCell id="umiMMHW3gKxDLxaDW7x6-8" value="AddUser()&#xa;DeleteUser()&#xa;EditUser()&#xa;SearchUser()" style="text;strokeColor=none;fillColor=none;align=left;verticalAlign=top;spacingLeft=4;spacingRight=4;overflow=hidden;rotatable=0;points=[[0,0.5],[1,0.5]];portConstraint=eastwest;" vertex="1" parent="umiMMHW3gKxDLxaDW7x6-5">
          <mxGeometry y="88" width="160" height="72" as="geometry" />
        </mxCell>
        <mxCell id="umiMMHW3gKxDLxaDW7x6-9" value="Role" style="swimlane;fontStyle=1;align=center;verticalAlign=top;childLayout=stackLayout;horizontal=1;startSize=26;horizontalStack=0;resizeParent=1;resizeParentMax=0;resizeLast=0;collapsible=1;marginBottom=0;" vertex="1" parent="1">
          <mxGeometry x="60" y="355" width="160" height="180" as="geometry" />
        </mxCell>
        <mxCell id="umiMMHW3gKxDLxaDW7x6-10" value="RoleID: int&#xa;RoleName: string&#xa;DescriptionRole: string" style="text;strokeColor=none;fillColor=none;align=left;verticalAlign=top;spacingLeft=4;spacingRight=4;overflow=hidden;rotatable=0;points=[[0,0.5],[1,0.5]];portConstraint=eastwest;" vertex="1" parent="umiMMHW3gKxDLxaDW7x6-9">
          <mxGeometry y="26" width="160" height="64" as="geometry" />
        </mxCell>
        <mxCell id="umiMMHW3gKxDLxaDW7x6-11" value="" style="line;strokeWidth=1;fillColor=none;align=left;verticalAlign=middle;spacingTop=-1;spacingLeft=3;spacingRight=3;rotatable=0;labelPosition=right;points=[];portConstraint=eastwest;" vertex="1" parent="umiMMHW3gKxDLxaDW7x6-9">
          <mxGeometry y="90" width="160" height="8" as="geometry" />
        </mxCell>
        <mxCell id="umiMMHW3gKxDLxaDW7x6-12" value="AddRole()&#xa;DeleteRole()&#xa;EditRole()&#xa;SearchRole()" style="text;strokeColor=none;fillColor=none;align=left;verticalAlign=top;spacingLeft=4;spacingRight=4;overflow=hidden;rotatable=0;points=[[0,0.5],[1,0.5]];portConstraint=eastwest;" vertex="1" parent="umiMMHW3gKxDLxaDW7x6-9">
          <mxGeometry y="98" width="160" height="82" as="geometry" />
        </mxCell>
        <mxCell id="umiMMHW3gKxDLxaDW7x6-13" value="Permission" style="swimlane;fontStyle=1;align=center;verticalAlign=top;childLayout=stackLayout;horizontal=1;startSize=26;horizontalStack=0;resizeParent=1;resizeParentMax=0;resizeLast=0;collapsible=1;marginBottom=0;" vertex="1" parent="1">
          <mxGeometry x="315" y="360" width="170" height="190" as="geometry" />
        </mxCell>
        <mxCell id="umiMMHW3gKxDLxaDW7x6-14" value="PermissionID: int&#xa;PermissionName: string&#xa;PermissionDescription: string" style="text;strokeColor=none;fillColor=none;align=left;verticalAlign=top;spacingLeft=4;spacingRight=4;overflow=hidden;rotatable=0;points=[[0,0.5],[1,0.5]];portConstraint=eastwest;" vertex="1" parent="umiMMHW3gKxDLxaDW7x6-13">
          <mxGeometry y="26" width="170" height="74" as="geometry" />
        </mxCell>
        <mxCell id="umiMMHW3gKxDLxaDW7x6-15" value="" style="line;strokeWidth=1;fillColor=none;align=left;verticalAlign=middle;spacingTop=-1;spacingLeft=3;spacingRight=3;rotatable=0;labelPosition=right;points=[];portConstraint=eastwest;" vertex="1" parent="umiMMHW3gKxDLxaDW7x6-13">
          <mxGeometry y="100" width="170" height="8" as="geometry" />
        </mxCell>
        <mxCell id="umiMMHW3gKxDLxaDW7x6-16" value="AddPer()&#xa;DeletePer()&#xa;EditPer()&#xa;SearchPer()" style="text;strokeColor=none;fillColor=none;align=left;verticalAlign=top;spacingLeft=4;spacingRight=4;overflow=hidden;rotatable=0;points=[[0,0.5],[1,0.5]];portConstraint=eastwest;" vertex="1" parent="umiMMHW3gKxDLxaDW7x6-13">
          <mxGeometry y="108" width="170" height="82" as="geometry" />
        </mxCell>
        <mxCell id="umiMMHW3gKxDLxaDW7x6-29" style="edgeStyle=orthogonalEdgeStyle;rounded=0;orthogonalLoop=1;jettySize=auto;html=1;entryX=-0.002;entryY=0.102;entryDx=0;entryDy=0;entryPerimeter=0;" edge="1" parent="1" source="umiMMHW3gKxDLxaDW7x6-17" target="umiMMHW3gKxDLxaDW7x6-21">
          <mxGeometry relative="1" as="geometry" />
        </mxCell>
        <mxCell id="umiMMHW3gKxDLxaDW7x6-17" value="Chat" style="swimlane;fontStyle=1;align=center;verticalAlign=top;childLayout=stackLayout;horizontal=1;startSize=26;horizontalStack=0;resizeParent=1;resizeParentMax=0;resizeLast=0;collapsible=1;marginBottom=0;" vertex="1" parent="1">
          <mxGeometry x="570" y="350" width="150" height="190" as="geometry" />
        </mxCell>
        <mxCell id="umiMMHW3gKxDLxaDW7x6-18" value="ChatID: int&#xa;ChatType: string&#xa;ChatContent: string&#xa;ChatTime: string" style="text;strokeColor=none;fillColor=none;align=left;verticalAlign=top;spacingLeft=4;spacingRight=4;overflow=hidden;rotatable=0;points=[[0,0.5],[1,0.5]];portConstraint=eastwest;" vertex="1" parent="umiMMHW3gKxDLxaDW7x6-17">
          <mxGeometry y="26" width="150" height="84" as="geometry" />
        </mxCell>
        <mxCell id="umiMMHW3gKxDLxaDW7x6-19" value="" style="line;strokeWidth=1;fillColor=none;align=left;verticalAlign=middle;spacingTop=-1;spacingLeft=3;spacingRight=3;rotatable=0;labelPosition=right;points=[];portConstraint=eastwest;" vertex="1" parent="umiMMHW3gKxDLxaDW7x6-17">
          <mxGeometry y="110" width="150" height="8" as="geometry" />
        </mxCell>
        <mxCell id="umiMMHW3gKxDLxaDW7x6-20" value="AddChat()&#xa;DeleteChat()&#xa;EditChat()&#xa;SearchChat()" style="text;strokeColor=none;fillColor=none;align=left;verticalAlign=top;spacingLeft=4;spacingRight=4;overflow=hidden;rotatable=0;points=[[0,0.5],[1,0.5]];portConstraint=eastwest;" vertex="1" parent="umiMMHW3gKxDLxaDW7x6-17">
          <mxGeometry y="118" width="150" height="72" as="geometry" />
        </mxCell>
        <mxCell id="umiMMHW3gKxDLxaDW7x6-21" value="GroupChat" style="swimlane;fontStyle=1;align=center;verticalAlign=top;childLayout=stackLayout;horizontal=1;startSize=26;horizontalStack=0;resizeParent=1;resizeParentMax=0;resizeLast=0;collapsible=1;marginBottom=0;" vertex="1" parent="1">
          <mxGeometry x="680" y="90" width="160" height="190" as="geometry" />
        </mxCell>
        <mxCell id="umiMMHW3gKxDLxaDW7x6-22" value="GroupchatID: int&#xa;GroupName: string&#xa;GroupcharTIme: string" style="text;strokeColor=none;fillColor=none;align=left;verticalAlign=top;spacingLeft=4;spacingRight=4;overflow=hidden;rotatable=0;points=[[0,0.5],[1,0.5]];portConstraint=eastwest;" vertex="1" parent="umiMMHW3gKxDLxaDW7x6-21">
          <mxGeometry y="26" width="160" height="74" as="geometry" />
        </mxCell>
        <mxCell id="umiMMHW3gKxDLxaDW7x6-23" value="" style="line;strokeWidth=1;fillColor=none;align=left;verticalAlign=middle;spacingTop=-1;spacingLeft=3;spacingRight=3;rotatable=0;labelPosition=right;points=[];portConstraint=eastwest;" vertex="1" parent="umiMMHW3gKxDLxaDW7x6-21">
          <mxGeometry y="100" width="160" height="8" as="geometry" />
        </mxCell>
        <mxCell id="umiMMHW3gKxDLxaDW7x6-24" value="AddGroup()&#xa;DeleteGroup()&#xa;EditGroup()&#xa;SearchGroup()" style="text;strokeColor=none;fillColor=none;align=left;verticalAlign=top;spacingLeft=4;spacingRight=4;overflow=hidden;rotatable=0;points=[[0,0.5],[1,0.5]];portConstraint=eastwest;" vertex="1" parent="umiMMHW3gKxDLxaDW7x6-21">
          <mxGeometry y="108" width="160" height="82" as="geometry" />
        </mxCell>
        <mxCell id="umiMMHW3gKxDLxaDW7x6-25" style="edgeStyle=orthogonalEdgeStyle;rounded=0;orthogonalLoop=1;jettySize=auto;html=1;exitX=1;exitY=0.5;exitDx=0;exitDy=0;entryX=0.025;entryY=-0.041;entryDx=0;entryDy=0;entryPerimeter=0;" edge="1" parent="1" source="umiMMHW3gKxDLxaDW7x6-2" target="umiMMHW3gKxDLxaDW7x6-6">
          <mxGeometry relative="1" as="geometry" />
        </mxCell>
        <mxCell id="umiMMHW3gKxDLxaDW7x6-27" style="edgeStyle=orthogonalEdgeStyle;rounded=0;orthogonalLoop=1;jettySize=auto;html=1;entryX=0;entryY=0.5;entryDx=0;entryDy=0;" edge="1" parent="1" source="umiMMHW3gKxDLxaDW7x6-10" target="umiMMHW3gKxDLxaDW7x6-14">
          <mxGeometry relative="1" as="geometry" />
        </mxCell>
        <mxCell id="umiMMHW3gKxDLxaDW7x6-28" style="edgeStyle=orthogonalEdgeStyle;rounded=0;orthogonalLoop=1;jettySize=auto;html=1;" edge="1" parent="1" source="umiMMHW3gKxDLxaDW7x6-14" target="umiMMHW3gKxDLxaDW7x6-17">
          <mxGeometry relative="1" as="geometry" />
        </mxCell>
      </root>
    </mxGraphModel>
  </diagram>
</mxfile>
